<?xml version="1.0" encoding="UTF-8" standalone="no"?>
<!-- Created with Inkscape (http://www.inkscape.org/) -->

<svg
   width="15mm"
   height="15.000319mm"
   viewBox="0 0 15 15.000319"
   version="1.1"
   id="svg1"
   inkscape:version="1.4.3 (0d15f75, 2025-12-25)"
   sodipodi:docname="favicon.svg"
   xmlns:inkscape="http://www.inkscape.org/namespaces/inkscape"
   xmlns:sodipodi="http://sodipodi.sourceforge.net/DTD/sodipodi-0.dtd"
   xmlns="http://www.w3.org/2000/svg"
   xmlns:svg="http://www.w3.org/2000/svg">
  <sodipodi:namedview
     id="namedview1"
     pagecolor="#ffffff"
     bordercolor="#000000"
     borderopacity="0.25"
     inkscape:showpageshadow="2"
     inkscape:pageopacity="0.0"
     inkscape:pagecheckerboard="0"
     inkscape:deskcolor="#d1d1d1"
     inkscape:document-units="mm"
     inkscape:zoom="2.0989207"
     inkscape:cx="123.39675"
     inkscape:cy="159.36762"
     inkscape:window-width="1920"
     inkscape:window-height="1051"
     inkscape:window-x="-9"
     inkscape:window-y="-9"
     inkscape:window-maximized="1"
     inkscape:current-layer="layer1" />
  <defs
     id="defs1" />
  <g
     inkscape:label="Layer 1"
     inkscape:groupmode="layer"
     id="layer1">
    <path
       id="path48"
       d="m 1.9797128,14.8257 c -0.99532165,0 -1.80509866,-0.809767 -1.80509866,-1.805091 V 1.979726 c 0,-0.9953559 0.80977701,-1.80510659 1.80509866,-1.80510659 H 13.020337 c 0.995293,0 1.805072,0.80975069 1.805072,1.80510659 v 11.040883 c 0,0.995324 -0.809779,1.80509 -1.805072,1.80509 z"
       style="fill:#000000;fill-opacity:1;fill-rule:nonzero;stroke:none;stroke-width:0.0146607" />
    <path
       id="path49"
       d="M 13.020326,0 H 1.9797128 C 0.88810045,0 0,0.88809785 0,1.9797233 V 13.02058 c 0,1.091625 0.88810045,1.979739 1.9797128,1.979739 H 13.020326 C 14.111923,15.000319 15,14.112205 15,13.02058 V 1.9797233 C 15,0.88809785 14.111923,0 13.020326,0 m 0,0.34919403 c 0.899035,0 1.630469,0.73146417 1.630469,1.63052927 V 13.02058 c 0,0.899081 -0.731434,1.630532 -1.630469,1.630532 H 1.9797128 c -0.8990758,0 -1.6305135,-0.731451 -1.6305135,-1.630532 V 1.9797233 c 0,-0.8990651 0.7314377,-1.63052927 1.6305135,-1.63052927 H 13.020326"
       style="fill:#ffffff;fill-opacity:1;fill-rule:nonzero;stroke:none;stroke-width:0.0146607" />
    <path
       id="path50"
       d="M 7.4869765,7.567618 H 14.072185 V 0.9824074 H 7.4869765 Z"
       style="fill:#000000;fill-opacity:1;fill-rule:nonzero;stroke:none;stroke-width:0.0146607" />
    <path
       id="path51"
       d="M 0.9017498,7.567618 H 7.486963 V 0.9824074 H 0.9017498 Z"
       style="fill:#ffffff;fill-opacity:1;fill-rule:nonzero;stroke:none;stroke-width:0.0146607" />
    <path
       id="path52"
       d="M 7.4869765,7.556435 H 0.90177085 v 6.585229 H 7.4869765 Z"
       style="fill:#000000;fill-opacity:1;fill-rule:nonzero;stroke:none;stroke-width:0.0146607" />
    <path
       id="path53"
       d="M 14.072185,7.556435 H 7.4869765 v 6.585229 h 6.5852075 z"
       style="fill:#ffffff;fill-opacity:1;fill-rule:nonzero;stroke:none;stroke-width:0.0146607" />
    <path
       id="path54"
       d="m 4.9082564,13.955582 -5.25e-4,0.635089 c 0.016992,-0.0031 0.03462,-0.005 0.053575,-0.005 h 5.1308616 l -5.5e-4,-0.630299 c -4.3e-5,-0.0097 -0.0056,-0.880097 0.11225,-1.807718 0.470183,-0.207411 0.797861,-0.657445 0.797861,-1.173606 0,-0.356281 -0.159334,-0.691351 -0.423677,-0.931441 -10e-4,-0.4934895 -0.290344,-0.920193 -0.7217896,-1.1381235 v -0.03531 L 10.86395,6.501455 C 11.122765,5.89348 10.8616,5.1920125 10.256607,4.8698087 9.8016515,4.627575 9.3322035,4.4487457 8.8565435,4.3361896 h 0.80793 V 1.6099539 H 8.8552945 L 9.240531,0.49087175 H 5.7593765 L 6.144634,1.6099539 H 5.3354365 v 2.726241 H 6.143359 C 5.6677175,4.4487509 5.1982745,4.6275776 4.7432819,4.8698666 4.1382813,5.192015 3.877161,5.8934615 4.135905,6.5014655 L 5.1436245,8.869197 v 0.03532 c -0.4314217,0.217925 -0.7208997,0.6446525 -0.7217902,1.138122 -0.264337,0.240115 -0.4236157,0.575154 -0.4236157,0.931446 0,0.516149 0.3276623,0.966186 0.7978612,1.173589 0.1178961,0.927632 0.1122873,1.798031 0.1121951,1.807908"
       style="fill:#ffffff;fill-opacity:1;fill-rule:evenodd;stroke:none;stroke-width:0.0146607" />
    <path
       id="path55"
       d="m 4.6314477,10.974054 c 0,-0.298707 0.2020155,-0.554561 0.4836428,-0.654795 -0.03849,-0.08436 -0.059971,-0.177054 -0.059971,-0.27427 0,-0.377823 0.3227305,-0.687489 0.72179,-0.699368 V 8.7546045 L 4.7239026,6.280429 C 4.5819482,5.9469315 4.7220584,5.56478 5.0554405,5.387718 5.6595715,5.066015 6.2085125,4.9149059 6.634547,4.8465593 L 7.0151125,3.7410368 H 6.967075 5.9687 V 2.2051279 H 6.967075 7.01511 L 6.6298995,1.0860456 h 0.77261 0.1949865 0.7726305 L 7.984893,2.2051279 H 8.032928 9.0313215 V 3.7410368 H 8.032928 7.984893 l 0.380555,1.1055225 c 0.42605,0.068347 0.9749935,0.2194557 1.57913,0.5411587 0.332542,0.177062 0.473471,0.5592135 0.33153,0.892711 L 9.2231015,8.7546045 V 9.345621 c 0.3990515,0.01188 0.7217875,0.321545 0.7217875,0.699368 0,0.09722 -0.02147,0.189913 -0.059977,0.27427 0.281648,0.100234 0.483627,0.356088 0.483627,0.654795 0,0.381911 -0.329633,0.694528 -0.7346545,0.699987 C 9.448087,12.793268 9.458472,14.608433 9.458472,14.608433 H 7.691205 7.3088005 5.541546 c 0,0 0.01025,-1.815165 -0.1754305,-2.934392 -0.4050006,-0.0054 -0.7346678,-0.318076 -0.7346678,-0.699987"
       style="fill:#000000;fill-opacity:1;fill-rule:evenodd;stroke:none;stroke-width:0.0146607" />
    <path
       id="path56"
       d="m 1.9797128,1.0825312 c -0.494697,0 -0.8972,0.402474 -0.8972,0.8971921 V 13.02058 c 0,0.494739 0.402503,0.89721 0.8972,0.89721 H 13.020326 c 0.494703,0 0.897164,-0.402471 0.897164,-0.89721 V 1.9797233 c 0,-0.4947181 -0.402461,-0.8971921 -0.897164,-0.8971921 z M 0.3491993,13.02058 V 1.9797233 c 0,-0.8990651 0.7314377,-1.63052927 1.6305135,-1.63052927 H 13.020326 c 0.899035,0 1.63049,0.73146417 1.63049,1.63052927 V 13.02058 c 0,0.899089 -0.731455,1.630532 -1.63049,1.630532 H 1.9797128 c -0.8990758,0 -1.6305135,-0.731443 -1.6305135,-1.630532"
       style="fill:#000000;fill-opacity:1;fill-rule:nonzero;stroke:none;stroke-width:0.0146607" />
  </g>
</svg>
