<?xml version="1.0" encoding="UTF-8" standalone="no"?>
<!-- Created with Inkscape (http://www.inkscape.org/) -->

<svg
   width="56.937mm"
   height="69.562347mm"
   viewBox="0 0 56.937 69.562347"
   version="1.1"
   id="svg1"
   inkscape:version="1.4.3 (0d15f75, 2025-12-25)"
   sodipodi:docname="Logo2.svg"
   xmlns:inkscape="http://www.inkscape.org/namespaces/inkscape"
   xmlns:sodipodi="http://sodipodi.sourceforge.net/DTD/sodipodi-0.dtd"
   xmlns="http://www.w3.org/2000/svg"
   xmlns:svg="http://www.w3.org/2000/svg">
  <sodipodi:namedview
     id="namedview1"
     pagecolor="#ffffff"
     bordercolor="#000000"
     borderopacity="0.25"
     inkscape:showpageshadow="2"
     inkscape:pageopacity="0.0"
     inkscape:pagecheckerboard="0"
     inkscape:deskcolor="#d1d1d1"
     inkscape:document-units="mm"
     inkscape:zoom="4.1978414"
     inkscape:cx="121.25279"
     inkscape:cy="288.36249"
     inkscape:window-width="1920"
     inkscape:window-height="1051"
     inkscape:window-x="-9"
     inkscape:window-y="-9"
     inkscape:window-maximized="1"
     inkscape:current-layer="layer1" />
  <defs
     id="defs1" />
  <g
     inkscape:label="Layer 1"
     inkscape:groupmode="layer"
     id="layer1">
    <path
       id="path48"
       d="m 7.51459,56.27536 c -3.77804,0 -6.85179,-3.07371 -6.85179,-6.85176 V 7.51464 c 0,-3.77817 3.07375,-6.85182 6.85179,-6.85182 h 41.90798 c 3.77793,0 6.85169,3.07365 6.85169,6.85182 V 49.4236 c 0,3.77805 -3.07376,6.85176 -6.85169,6.85176 z"
       style="fill:#000000;fill-opacity:1;fill-rule:nonzero;stroke:none;stroke-width:0.0556491" />
    <path
       id="path49"
       d="M 49.42253,0 H 7.51459 C 3.37105,0 0,3.37104 0,7.51463 v 41.90886 c 0,4.14359 3.37105,7.51469 7.51459,7.51469 h 41.90794 c 4.14348,0 7.51444,-3.3711 7.51444,-7.51469 V 7.51463 C 56.93697,3.37104 53.56601,0 49.42253,0 m 0,1.32547 c 3.41255,0 6.18893,2.77649 6.18893,6.18916 v 41.90886 c 0,3.41273 -2.77638,6.18917 -6.18893,6.18917 H 7.51459 c -3.41271,0 -6.1891,-2.77644 -6.1891,-6.18917 V 7.51463 c 0,-3.41267 2.77639,-6.18916 6.1891,-6.18916 h 41.90794"
       style="fill:#ffffff;fill-opacity:1;fill-rule:nonzero;stroke:none;stroke-width:0.0556491" />
    <path
       id="path50"
       d="M 28.41905,28.72515 H 53.41517 V 3.72902 H 28.41905 Z"
       style="fill:#000000;fill-opacity:1;fill-rule:nonzero;stroke:none;stroke-width:0.0556491" />
    <path
       id="path51"
       d="M 3.42286,28.72515 H 28.419 V 3.72902 H 3.42286 Z"
       style="fill:#ffffff;fill-opacity:1;fill-rule:nonzero;stroke:none;stroke-width:0.0556491" />
    <path
       id="path52"
       d="M 28.41905,28.6827 H 3.42294 v 24.9962 h 24.99611 z"
       style="fill:#000000;fill-opacity:1;fill-rule:nonzero;stroke:none;stroke-width:0.0556491" />
    <path
       id="path53"
       d="M 53.41517,28.6827 H 28.41905 v 24.9962 h 24.99612 z"
       style="fill:#ffffff;fill-opacity:1;fill-rule:nonzero;stroke:none;stroke-width:0.0556491" />
    <path
       id="path54"
       d="m 18.63075,52.97257 -0.002,2.41067 c 0.0645,-0.0117 0.13141,-0.0189 0.20336,-0.0189 h 19.47572 l -0.002,-2.39249 c -1.6e-4,-0.0369 -0.0214,-3.34067 0.42608,-6.86173 1.78472,-0.78729 3.02852,-2.49553 3.02852,-4.45477 0,-1.35237 -0.6048,-2.62423 -1.60819,-3.53556 -0.004,-1.87319 -1.10209,-3.49287 -2.73977,-4.32009 v -0.13403 l 3.82498,-8.98738 c 0.98241,-2.30775 -0.009,-4.97038 -2.30535,-6.1934 -1.72701,-0.91955 -3.50894,-1.59835 -5.31445,-2.02559 h 3.06674 V 6.11106 H 33.61291 L 35.07519,1.86325 H 21.86143 l 1.46236,4.24781 h -3.07155 v 10.34826 h 3.06671 c -1.80544,0.42724 -3.58735,1.10603 -5.31441,2.02571 -2.29646,1.22281 -3.28762,3.88536 -2.30548,6.19322 l 3.8251,8.98743 v 0.13406 c -1.63759,0.8272 -2.73639,2.44697 -2.73977,4.32008 -1.00337,0.91143 -1.60796,2.18317 -1.60796,3.53558 0,1.9592 1.24374,3.66745 3.02852,4.45471 0.44751,3.5211 0.42622,6.82496 0.42587,6.86245"
       style="fill:#ffffff;fill-opacity:1;fill-rule:evenodd;stroke:none;stroke-width:0.0556491" />
    <path
       id="path55"
       d="m 17.58004,41.65529 c 0,-1.13383 0.76681,-2.105 1.83581,-2.48547 -0.1461,-0.3202 -0.22764,-0.67206 -0.22764,-1.04107 0,-1.43414 1.22502,-2.60957 2.73977,-2.65466 v -2.24338 l -3.997,-9.39147 c -0.53883,-1.26589 -0.007,-2.71646 1.25845,-3.38855 2.29316,-1.22112 4.37683,-1.7947 5.99397,-2.05413 l 1.44455,-4.19634 h -0.18234 -3.78963 v -5.83 h 3.78963 0.18234 L 25.16576,4.12241 h 2.93267 0.74013 2.93275 l -1.46227,4.24781 h 0.18233 3.7897 v 5.83 h -3.7897 -0.18233 l 1.44451,4.19634 c 1.6172,0.25943 3.70088,0.83301 5.99406,2.05413 1.26226,0.67209 1.7972,2.12266 1.25842,3.38855 l -3.997,9.39147 v 2.24338 c 1.51472,0.0451 2.73976,1.22052 2.73976,2.65466 0,0.36901 -0.0815,0.72087 -0.22766,1.04107 1.06908,0.38047 1.83575,1.35164 1.83575,2.48547 0,1.44966 -1.25122,2.63629 -2.7886,2.65701 -0.70525,4.24836 -0.66583,11.13836 -0.66583,11.13836 h -6.70819 -1.45153 -6.70814 c 0,0 0.0389,-6.89 -0.6659,-11.13836 -1.5373,-0.0205 -2.78865,-1.20735 -2.78865,-2.65701"
       style="fill:#000000;fill-opacity:1;fill-rule:evenodd;stroke:none;stroke-width:0.0556491" />
    <path
       id="path56"
       d="M 7.51459,4.10907 C 5.63682,4.10907 4.109,5.63678 4.109,7.51463 v 41.90886 c 0,1.87793 1.52782,3.40563 3.40559,3.40563 h 41.90794 c 1.87779,0 3.40545,-1.5277 3.40545,-3.40563 V 7.51463 c 0,-1.87785 -1.52766,-3.40556 -3.40545,-3.40556 z M 1.32549,49.42349 V 7.51463 c 0,-3.41267 2.77639,-6.18916 6.1891,-6.18916 h 41.90794 c 3.41255,0 6.18901,2.77649 6.18901,6.18916 v 41.90886 c 0,3.41276 -2.77646,6.18917 -6.18901,6.18917 H 7.51459 c -3.41271,0 -6.1891,-2.77641 -6.1891,-6.18917"
       style="fill:#000000;fill-opacity:1;fill-rule:nonzero;stroke:none;stroke-width:0.0556491" />
    <path
       id="path57"
       d="m 5.99629,66.92768 v 0.19987 c 0,0.74501 -0.01,1.4173 -0.62694,1.93506 -0.61796,0.5089 -1.37187,0.49973 -2.16231,0.49973 -1.85335,0 -3.20698,-0.0908 -3.20698,-2.58019 v -1.76251 c 0,-2.25316 1.20829,-2.58027 3.20698,-2.58027 1.87154,0 2.7437,0.1909 2.78005,2.23504 v 0.26349 h -1.8715 v -0.26349 c -0.064,-0.60868 -0.49056,-0.6541 -1.10849,-0.6541 -1.0356,0 -1.13567,0.31785 -1.13567,1.28996 v 1.0631 c 0,1.01751 0.0449,1.40812 1.13567,1.40812 0.75401,0 1.11769,-0.0543 1.11769,-0.85394 v -0.19987 z"
       style="fill:#ffffff;fill-opacity:1;fill-rule:nonzero;stroke:none;stroke-width:0.0556491" />
    <path
       id="path58"
       d="M 13.24621,69.50784 H 11.42928 V 66.83682 H 9.05802 v 2.67102 h -1.8173 v -6.81381 h 1.8173 V 65.256 h 2.37126 v -2.56197 h 1.81693 z"
       style="fill:#ffffff;fill-opacity:1;fill-rule:nonzero;stroke:none;stroke-width:0.0556491" />
    <path
       id="path59"
       d="m 16.58042,65.4286 h 2.90726 v 1.26289 h -2.90726 v 1.32641 h 3.16182 v 1.48998 h -4.97885 v -6.81393 h 4.91525 v 1.48996 h -3.09822 z"
       style="fill:#ffffff;fill-opacity:1;fill-rule:nonzero;stroke:none;stroke-width:0.0556491" />
    <path
       id="path60"
       d="m 27.01936,66.92768 v 0.19987 c 0,0.74501 -0.009,1.4173 -0.62689,1.93506 -0.61781,0.5089 -1.37195,0.49973 -2.16229,0.49973 -1.85334,0 -3.20705,-0.0908 -3.20705,-2.58019 v -1.76251 c 0,-2.25316 1.20821,-2.58027 3.20705,-2.58027 1.87154,0 2.7438,0.1909 2.78003,2.23504 v 0.26349 h -1.87156 v -0.26349 c -0.0639,-0.60868 -0.49046,-0.6541 -1.10839,-0.6541 -1.03574,0 -1.1356,0.31785 -1.1356,1.28996 v 1.0631 c 0,1.01751 0.0449,1.40812 1.1356,1.40812 0.75414,0 1.1175,-0.0543 1.1175,-0.85394 v -0.19987 z"
       style="fill:#ffffff;fill-opacity:1;fill-rule:nonzero;stroke:none;stroke-width:0.0556491" />
    <path
       id="path61"
       d="m 30.08114,65.256 h 0.54514 l 1.75349,-2.56205 h 2.19854 l -2.39844,3.34336 2.59833,3.47053 h -2.25311 l -1.89881,-2.6711 h -0.54514 v 2.6711 h -1.81709 v -6.81389 h 1.81709 z"
       style="fill:#ffffff;fill-opacity:1;fill-rule:nonzero;stroke:none;stroke-width:0.0556491" />
    <path
       id="path62"
       d="m 37.24928,69.50784 h -1.81691 v -6.81381 h 2.87999 l 1.29915,4.27901 h 0.0638 l 1.23554,-4.27901 h 2.95262 v 6.81381 h -1.81696 l 0.18164,-5.22392 h -0.0637 l -1.72619,5.22392 h -1.57168 l -1.74433,-5.22392 h -0.0544 z"
       style="fill:#ffffff;fill-opacity:1;fill-rule:nonzero;stroke:none;stroke-width:0.0556491" />
    <path
       id="path63"
       d="m 48.12437,64.05674 h -0.0183 l -0.82692,2.9527 h 1.68991 z m -1.23554,4.27914 -0.33618,1.17196 h -1.88982 l 2.04427,-6.81389 h 2.76181 l 2.07147,6.81389 h -1.85346 l -0.35427,-1.17196 z"
       style="fill:#ffffff;fill-opacity:1;fill-rule:nonzero;stroke:none;stroke-width:0.0556491" />
    <path
       id="path64"
       d="m 55.10178,69.50784 h -1.81695 v -5.23307 h -1.7445 V 62.69403 H 56.937 v 1.58074 h -1.83522 z"
       style="fill:#ffffff;fill-opacity:1;fill-rule:nonzero;stroke:none;stroke-width:0.0556491" />
  </g>
</svg>
